<?xml version="1.0" standalone="no"?>
<!DOCTYPE svg PUBLIC "-//W3C//DTD SVG 20010904//EN"
 "http://www.w3.org/TR/2001/REC-SVG-20010904/DTD/svg10.dtd">
<svg version="1.0" xmlns="http://www.w3.org/2000/svg"
 width="476.000000pt" height="476.000000pt" viewBox="0 0 476.000000 476.000000"
 preserveAspectRatio="xMidYMid meet">
<metadata>
Created by potrace 1.14, written by Peter Selinger 2001-2017
</metadata>
<g transform="translate(0.000000,476.000000) scale(0.100000,-0.100000)"
fill="#000000" stroke="none">
<path d="M1850 3388 c1 -73 1 -217 1 -319 -1 -178 -2 -186 -23 -209 -13 -14
-22 -29 -20 -35 2 -5 0 -7 -4 -3 -4 4 -64 -50 -134 -120 -71 -70 -145 -143
-167 -163 -58 -55 -89 -94 -68 -86 9 4 26 7 36 7 11 0 17 5 14 10 -6 9 8 14
28 11 4 0 7 3 7 7 0 5 21 9 47 11 26 1 50 4 54 6 3 3 17 -4 29 -15 13 -11 28
-20 33 -20 5 0 23 -13 39 -30 15 -16 36 -30 45 -30 9 0 14 3 10 6 -8 8 16 33
26 27 4 -2 7 3 7 11 0 8 9 18 21 21 11 4 18 9 16 12 -8 7 77 90 87 85 5 -3 6
0 2 6 -4 6 2 17 14 24 11 7 20 18 20 25 0 7 7 13 16 13 8 0 12 5 9 10 -3 6 1
10 10 10 9 0 14 3 12 8 -2 4 33 44 79 90 l82 84 47 -46 c25 -25 51 -46 56 -46
6 0 7 -4 4 -10 -3 -5 1 -10 10 -10 9 0 14 -3 12 -7 -4 -8 26 -41 40 -45 5 -2
7 -6 6 -10 -2 -5 4 -8 12 -8 8 0 14 -3 12 -8 -2 -8 73 -82 85 -82 4 0 8 -7 8
-16 0 -8 5 -12 10 -9 6 3 10 1 10 -5 0 -14 25 -40 39 -40 6 0 11 -7 11 -16 0
-8 4 -13 8 -10 5 3 15 -6 22 -19 7 -14 20 -25 27 -25 8 0 11 -4 8 -10 -3 -5
-1 -10 5 -10 15 0 40 -25 40 -41 0 -7 3 -10 6 -6 7 6 64 -52 64 -66 0 -4 4 -6
9 -3 5 3 16 -5 25 -19 9 -14 23 -25 32 -25 8 0 13 -4 10 -8 -3 -5 4 -15 15
-22 10 -8 19 -21 19 -29 0 -8 3 -12 6 -8 3 3 57 -45 119 -108 62 -62 116 -111
119 -108 3 4 6 -1 6 -11 0 -9 5 -14 10 -11 6 3 10 1 10 -5 0 -17 123 -129 134
-123 6 4 8 3 4 -2 -9 -9 9 -45 22 -45 16 0 50 -33 50 -49 0 -8 3 -12 6 -8 4 3
25 -14 49 -38 23 -25 46 -41 50 -37 5 4 5 1 1 -6 -4 -7 -1 -15 8 -18 9 -3 13
-11 9 -17 -3 -5 -1 -7 4 -4 6 4 27 -12 47 -34 20 -23 36 -38 36 -33 0 4 11 -7
25 -26 14 -19 25 -31 25 -27 0 3 13 -6 29 -21 15 -15 26 -30 24 -34 -2 -5 2
-8 9 -8 7 0 26 -16 43 -35 16 -19 36 -35 44 -35 8 0 12 -3 8 -6 -3 -3 9 -19
26 -34 l32 -29 -1434 -1 c-788 0 -1437 -3 -1442 -6 -5 -3 -9 0 -9 6 0 7 -7 7
-22 -2 -13 -7 -27 -11 -31 -10 -5 2 -7 -3 -5 -10 4 -11 311 -13 1586 -16 870
-1 1582 1 1582 5 0 3 -37 42 -82 85 -46 44 -163 158 -260 254 l-177 174 542 0
c479 1 540 2 523 15 -11 8 -17 15 -13 15 5 0 2 6 -5 14 -7 8 -14 13 -16 12 -5
-5 -152 145 -152 155 0 6 -4 7 -10 4 -5 -3 -10 -1 -10 5 0 6 -5 8 -12 4 -6 -4
-8 -3 -5 3 3 5 -7 20 -24 33 -16 14 -29 32 -29 40 0 13 -1 13 -10 0 -8 -13
-10 -13 -10 1 0 9 -11 22 -25 29 -14 7 -25 17 -25 22 0 5 -22 29 -50 55 -27
25 -47 50 -43 56 3 6 2 7 -4 4 -11 -7 -65 37 -56 47 3 3 -1 6 -11 6 -9 0 -14
5 -11 10 3 6 1 10 -5 10 -14 0 -40 25 -40 39 0 6 -4 10 -8 9 -4 -2 -40 30 -80
70 -40 39 -77 72 -82 72 -6 0 -9 3 -8 8 4 9 -111 122 -124 122 -5 0 -7 4 -4 9
3 5 -1 12 -10 15 -8 3 -12 11 -9 16 4 6 3 10 -2 9 -21 -4 -32 3 -38 21 -4 11
-10 18 -15 15 -5 -3 -11 4 -15 15 -3 11 -11 20 -16 20 -15 0 -39 26 -32 34 4
3 1 6 -6 6 -7 0 -28 17 -48 38 -20 20 -40 36 -45 34 -5 -1 -7 2 -4 7 4 5 0 12
-6 15 -10 3 -8 9 5 19 9 8 17 17 17 19 0 15 82 88 92 82 7 -4 8 -3 4 4 -4 7
-2 12 4 12 6 0 9 4 5 9 -3 5 4 12 15 16 11 3 20 14 20 22 0 9 3 14 6 10 3 -3
40 29 82 71 42 42 80 76 84 74 5 -1 7 1 6 5 -4 11 39 53 46 46 6 -6 10 12 7
30 0 4 2 6 6 6 20 -3 33 2 33 14 0 6 16 23 35 37 18 14 36 33 39 44 3 13 10
17 23 12 9 -4 14 -4 10 0 -3 4 18 31 48 60 30 30 55 56 55 59 0 3 -40 5 -90 5
l-89 0 -73 -72 c-40 -40 -72 -76 -70 -80 1 -4 -1 -7 -5 -6 -12 4 -54 -28 -46
-35 3 -4 1 -7 -4 -7 -6 0 -35 -24 -64 -54 -29 -30 -57 -52 -63 -49 -5 3 -6 1
-3 -4 7 -12 -26 -46 -36 -38 -4 3 -5 3 -3 0 5 -8 -70 -85 -83 -85 -6 0 -10 -3
-9 -7 3 -11 -60 -72 -67 -65 -3 3 -5 -2 -5 -12 0 -9 -4 -14 -10 -11 -5 3 -10
-1 -10 -10 0 -9 -3 -14 -7 -12 -10 5 -43 -30 -36 -37 4 -3 0 -6 -7 -6 -7 0
-23 -12 -36 -27 -19 -22 -21 -30 -11 -42 30 -37 199 -201 208 -201 5 0 9 -7 9
-15 0 -8 8 -15 17 -15 9 0 14 -3 10 -6 -8 -8 16 -33 26 -27 4 2 7 -4 7 -13 0
-10 2 -15 5 -12 7 7 135 -119 135 -132 0 -6 5 -8 10 -5 6 3 10 -1 10 -9 0 -9
4 -15 9 -14 4 2 38 -27 74 -63 36 -37 68 -64 71 -61 4 3 6 -2 6 -12 0 -9 4
-15 9 -11 5 3 12 -4 16 -15 3 -11 12 -20 18 -20 15 0 47 -36 40 -44 -4 -3 1
-6 11 -6 9 0 15 -4 11 -9 -3 -5 4 -12 15 -16 11 -3 20 -14 20 -22 0 -9 3 -14
6 -10 7 7 70 -53 66 -64 -1 -5 2 -9 7 -9 5 0 57 -47 115 -103 58 -57 109 -101
113 -98 3 3 3 -2 0 -11 -3 -10 -3 -17 1 -17 20 3 32 -3 32 -16 0 -12 -15 -15
-75 -15 -74 0 -75 1 -119 42 -25 22 -42 46 -39 51 3 6 1 7 -6 3 -6 -4 -14 0
-17 8 -3 9 -13 16 -21 16 -8 0 -11 4 -8 10 3 5 -1 10 -10 10 -9 0 -14 3 -12 8
3 4 -1 13 -9 20 -8 7 -14 11 -14 8 0 -3 -10 5 -23 17 -13 12 -22 25 -20 30 2
4 -2 7 -9 7 -7 0 -24 16 -38 34 -14 19 -26 33 -28 31 -7 -6 -107 100 -104 110
2 5 1 7 -3 3 -4 -3 -22 9 -41 29 -19 19 -34 31 -34 28 0 -10 -60 58 -60 68 0
5 -3 6 -7 4 -10 -5 -72 60 -65 68 3 3 1 5 -5 5 -15 0 -53 36 -53 50 0 7 -3 11
-6 7 -4 -3 -33 21 -65 53 -32 33 -64 60 -70 60 -5 0 -8 3 -6 8 6 9 -39 52 -47
45 -3 -4 -6 -1 -6 5 0 13 -58 72 -71 72 -5 0 -9 7 -9 16 0 8 -4 12 -10 9 -5
-3 -10 -1 -10 6 0 13 -38 49 -52 49 -4 0 -8 7 -8 16 0 8 -4 13 -9 10 -5 -3
-12 1 -15 10 -3 9 -11 12 -18 8 -7 -4 -10 -3 -5 1 9 11 -23 46 -35 39 -5 -3
-4 3 3 14 7 12 16 19 19 17 3 -2 15 10 25 26 11 16 22 29 26 29 10 0 209 199
209 210 0 6 4 9 9 6 4 -3 21 10 36 29 16 18 32 32 36 29 4 -2 10 4 13 13 3 10
19 27 36 38 16 11 30 26 30 33 0 6 7 12 16 12 8 0 12 5 9 10 -3 6 -2 10 3 10
13 0 152 138 152 150 0 6 3 9 8 9 19 -3 33 2 27 11 -9 15 -745 14 -745 -2 0
-6 -3 -8 -7 -5 -3 4 -19 -7 -35 -23 -15 -16 -28 -27 -28 -23 0 4 -15 -10 -34
-30 -18 -20 -36 -34 -40 -30 -3 3 -6 1 -6 -5 0 -12 -157 -172 -169 -172 -4 0
-13 -11 -20 -24 -7 -13 -24 -30 -37 -37 -13 -7 -24 -17 -24 -23 0 -13 -40 -50
-46 -44 -2 3 -4 100 -4 216 l-1 212 -340 0 -340 0 1 -132z"/>
<path d="M2150 2651 c0 -5 -11 -19 -25 -32 -13 -13 -25 -31 -25 -39 0 -13 -1
-13 -10 0 -9 13 -10 13 -11 0 -1 -8 -1 -18 0 -22 0 -5 -3 -7 -7 -5 -9 2 -72
-60 -66 -65 1 -2 -10 -12 -27 -23 -16 -11 -29 -23 -29 -27 0 -4 -43 -51 -96
-105 -52 -53 -100 -105 -105 -115 -6 -10 -14 -16 -20 -13 -5 4 -9 1 -9 -5 0
-15 -26 -40 -42 -40 -10 0 -9 -3 2 -10 10 -6 11 -10 3 -10 -16 0 -103 -85
-103 -100 0 -6 -4 -9 -9 -5 -5 3 -12 -4 -16 -15 -3 -11 -13 -20 -21 -20 -8 0
-13 -4 -11 -8 1 -4 -13 -22 -31 -40 -18 -18 -29 -32 -25 -33 4 0 0 -4 -10 -8
-10 -4 -19 -11 -20 -16 -1 -13 -20 -34 -27 -31 -3 2 -13 -5 -22 -16 -10 -10
-16 -18 -14 -18 2 0 -38 -43 -90 -96 -52 -52 -94 -100 -94 -105 0 -6 -4 -7
-10 -4 -5 3 -10 2 -10 -2 0 -15 -97 -113 -104 -105 -4 4 -7 2 -6 -3 4 -19 0
-38 -6 -32 -4 4 -16 -3 -26 -16 -11 -12 -33 -37 -49 -54 -16 -18 -28 -34 -27
-34 8 -4 2525 -5 2535 -1 7 2 -6 22 -30 46 -23 23 -45 41 -49 39 -5 -3 -8 0
-8 6 0 13 -48 61 -60 61 -6 0 -10 7 -10 16 0 8 -3 13 -7 11 -10 -6 -34 19 -26
27 4 3 -1 6 -10 6 -8 0 -19 9 -22 20 -4 11 -10 18 -15 15 -5 -3 -18 8 -30 25
-12 16 -28 30 -36 30 -8 0 -13 4 -11 8 3 10 -81 92 -94 92 -6 0 -7 5 -4 10 3
6 3 10 -2 10 -4 0 -19 10 -33 21 -14 11 -18 18 -10 14 8 -4 6 1 -4 9 -11 9
-23 16 -28 16 -4 0 -8 7 -8 15 0 8 -5 15 -10 15 -6 0 -35 25 -65 55 -30 30
-60 55 -67 55 -9 0 -9 3 2 10 13 9 13 10 -1 10 -8 0 -29 15 -45 33 -16 17 -50
51 -76 74 -25 23 -44 44 -41 46 2 3 -5 8 -16 12 -12 3 -21 14 -21 22 0 9 -3
14 -6 11 -3 -4 -45 34 -94 82 -48 49 -91 86 -94 83 -3 -4 -6 1 -6 10 0 10 -4
17 -10 17 -12 0 -60 48 -60 61 0 6 -4 8 -9 4 -5 -3 -12 4 -16 15 -3 11 -9 19
-13 17 -4 -1 -42 33 -85 76 -69 69 -107 93 -107 68z m-320 -552 c0 -6 -6 -7
-12 -3 -10 6 -10 5 -1 -7 8 -9 9 -20 3 -29 -6 -8 -10 -19 -10 -25 0 -5 5 -3
10 5 8 13 10 12 10 -2 0 -10 -6 -18 -12 -18 -10 0 -10 -2 0 -9 8 -4 14 -12 14
-16 0 -4 -6 -12 -14 -16 -10 -7 -10 -9 0 -9 6 0 12 -5 12 -11 0 -5 -5 -7 -12
-3 -7 5 -8 3 -3 -7 14 -22 15 -60 2 -53 -9 5 -9 4 0 -6 8 -9 9 -19 2 -32 -5
-10 -7 -24 -2 -31 11 -18 11 -47 -1 -47 -6 0 -5 -4 2 -9 8 -4 14 -12 14 -16 0
-4 -6 -12 -14 -16 -7 -5 -8 -9 -3 -9 6 0 11 -9 12 -20 1 -13 -2 -18 -10 -14
-9 5 -9 4 0 -6 8 -9 9 -19 3 -31 -7 -11 -7 -20 0 -24 15 -9 12 -27 -2 -19 -10
5 -10 4 -1 -6 8 -9 9 -19 3 -31 -7 -11 -7 -20 0 -24 5 -3 10 -11 10 -16 0 -6
-4 -8 -8 -5 -5 3 -9 -1 -9 -9 0 -8 4 -12 9 -9 13 8 9 -6 -6 -21 -7 -8 -17 -11
-20 -8 -4 4 -17 8 -29 10 -14 2 -18 0 -9 -5 16 -11 -139 -9 -155 1 -8 5 -13 4
-13 -2 0 -6 -5 -11 -11 -11 -5 0 -8 4 -5 9 4 5 -2 8 -11 6 -10 -2 -18 -4 -18
-5 0 -1 -41 -3 -92 -4 -50 0 -89 2 -86 7 2 4 -1 7 -6 7 -6 0 -11 -4 -11 -10 0
-5 -5 -10 -11 -10 -5 0 -8 4 -5 9 4 5 -2 8 -11 6 -10 -2 -18 -4 -18 -5 0 -1
-19 -3 -42 -4 -47 -3 -47 -5 9 62 16 18 28 30 28 27 0 -3 6 0 14 7 8 7 13 14
11 16 -2 2 28 35 66 73 38 38 66 69 63 69 -2 0 1 6 8 14 7 8 16 12 20 10 4 -2
9 5 13 16 3 11 14 20 22 20 9 0 14 3 10 6 -3 3 34 46 82 95 49 48 86 91 83 94
-3 3 3 5 13 5 10 0 16 3 12 6 -7 8 95 112 106 107 4 -2 7 -9 7 -14z m166 -14
c18 -19 38 -35 43 -35 5 0 13 -9 16 -21 4 -11 9 -18 12 -15 7 7 32 -17 26 -26
-2 -5 2 -8 9 -8 16 0 49 -36 41 -44 -4 -3 0 -6 7 -6 7 0 40 -27 72 -61 32 -34
58 -58 58 -54 0 3 7 0 15 -9 8 -8 15 -17 15 -21 0 -11 28 -35 41 -35 7 0 10
-3 7 -6 -7 -7 70 -84 83 -84 5 0 9 -7 9 -17 0 -9 3 -14 6 -11 3 3 29 -17 57
-45 29 -29 56 -51 60 -49 5 1 6 -2 2 -8 -3 -5 -1 -10 4 -10 6 0 11 -7 11 -16
0 -9 5 -12 13 -8 6 4 8 3 4 -1 -4 -5 -20 -11 -35 -12 -21 -3 -24 -1 -12 7 9 6
10 10 3 10 -6 0 -15 -5 -18 -10 -4 -6 -11 -8 -16 -4 -16 10 -59 12 -53 3 8
-13 -10 -11 -24 3 -9 9 -15 9 -24 0 -7 -7 -19 -12 -27 -12 -14 0 -14 1 -1 10
9 6 10 10 3 10 -6 0 -15 -5 -18 -10 -4 -6 -12 -7 -18 -3 -18 11 -36 12 -43 2
-3 -5 -10 -9 -15 -9 -6 0 -7 5 -4 10 3 6 1 10 -4 10 -6 0 -11 -4 -11 -10 0 -5
-5 -10 -11 -10 -5 0 -7 6 -3 13 6 10 4 10 -7 0 -7 -7 -20 -13 -29 -13 -13 0
-13 1 0 10 9 6 10 10 3 10 -6 0 -15 -5 -18 -10 -4 -6 -12 -7 -18 -3 -18 11
-36 12 -43 2 -3 -5 -10 -9 -15 -9 -6 0 -7 5 -4 10 3 6 1 10 -4 10 -6 0 -11 -4
-11 -10 0 -5 -5 -10 -11 -10 -5 0 -7 6 -3 13 6 10 4 10 -7 0 -7 -7 -20 -13
-29 -13 -13 0 -13 1 0 10 9 6 10 10 3 10 -6 0 -15 -5 -18 -10 -4 -7 -12 -7
-25 0 -13 7 -21 7 -25 0 -4 -7 -13 -7 -26 0 -14 8 -19 7 -19 -2 0 -8 -3 -9
-10 -2 -10 10 -16 597 -5 613 3 5 -1 12 -7 14 -10 4 -10 6 0 6 8 1 29 -15 48
-34z"/>
<path d="M1519 2456 c-13 -6 -27 -14 -30 -18 -3 -5 -22 -9 -42 -10 -20 -1 -37
-6 -37 -12 0 -7 -3 -6 -8 1 -6 9 -90 -68 -266 -241 -142 -140 -255 -260 -251
-265 3 -6 0 -8 -8 -5 -8 3 -18 1 -22 -5 -11 -20 34 -12 55 9 12 12 20 15 20 8
0 -9 4 -8 10 2 5 8 10 11 10 6 0 -5 7 -3 15 4 8 7 15 9 15 5 0 -4 8 -1 17 6
15 12 16 12 8 -1 -8 -13 -7 -13 8 -1 11 9 17 10 17 2 0 -6 11 -11 24 -11 12 0
37 -14 55 -30 17 -17 31 -28 31 -25 0 3 10 -3 22 -15 34 -31 85 -23 79 13 -1
5 2 6 7 3 10 -6 42 29 42 47 0 8 4 7 10 -3 8 -13 10 -13 10 1 0 20 34 51 45
42 4 -5 5 -2 1 5 -4 6 -2 12 4 12 6 0 8 5 5 10 -3 6 2 10 11 10 10 0 15 3 11
6 -7 7 29 44 45 44 6 0 9 3 5 6 -8 9 56 72 67 66 5 -3 6 0 2 6 -4 6 4 18 18
27 14 9 28 25 31 36 4 11 11 17 16 14 5 -4 9 1 9 9 0 9 7 16 15 16 8 0 15 4
15 9 0 12 47 61 60 61 5 0 9 4 8 8 -2 4 13 23 32 42 21 20 30 35 22 38 -7 2
-10 8 -6 13 3 5 -2 9 -11 9 -9 0 -13 5 -10 10 3 6 -1 10 -10 10 -10 0 -13 5
-9 13 4 6 4 9 -1 5 -4 -4 -14 -3 -22 4 -18 15 -113 17 -144 4z"/>
<path d="M970 1903 c0 -7 -8 -13 -18 -13 -10 0 -23 -5 -30 -12 -7 -7 -12 -8
-12 -2 0 5 -4 3 -8 -3 -5 -7 -27 -14 -51 -15 -34 -1 -47 -8 -70 -34 -16 -18
-31 -32 -33 -31 -1 1 -127 -121 -278 -270 -260 -259 -273 -273 -242 -273 20 0
31 4 27 10 -3 6 3 10 14 10 12 0 21 5 21 11 0 5 5 7 10 4 6 -3 10 -2 10 2 0 5
9 14 21 21 12 8 18 9 15 4 -3 -6 5 -5 18 1 13 7 23 14 21 17 -2 3 17 5 41 6
24 0 44 -4 44 -9 0 -4 4 -6 9 -2 5 3 16 -2 25 -11 9 -8 20 -12 26 -9 5 3 10 2
10 -3 0 -11 77 -52 100 -52 10 0 37 18 59 40 22 22 38 40 36 40 -2 0 15 19 38
43 23 23 45 41 50 39 4 -2 7 3 7 10 0 7 13 24 29 38 17 13 28 27 25 32 -3 4 2
8 11 8 8 0 23 13 34 30 10 16 20 27 23 24 4 -3 9 4 13 15 3 12 14 21 22 21 9
0 14 3 10 6 -3 3 37 48 89 101 53 52 94 101 92 109 -2 8 -6 15 -10 15 -4 0
-19 11 -32 24 -14 14 -30 25 -36 25 -6 0 -8 5 -4 12 4 6 3 8 -4 4 -6 -3 -13
-2 -17 4 -4 6 -11 8 -16 5 -5 -4 -9 -2 -9 4 0 5 -13 9 -30 9 -16 -1 -30 -6
-30 -12 0 -6 -5 -4 -10 4 -6 10 -10 11 -10 3z"/>
</g>
</svg>
