<svg width="26" height="21" viewBox="0 0 26 21" fill="none" xmlns="http://www.w3.org/2000/svg"><path d="M5.072 8.243a3.17 3.17 0 1 0 0-6.34 3.17 3.17 0 0 0 0 6.34Z" fill="#F38120"/><path opacity=".25" d="M5.072 10.144A5.072 5.072 0 1 0 5.072 0a5.072 5.072 0 0 0 0 10.144Z" fill="#F38120"/><path d="m24.403 8.084-4.186-4.68a2.102 2.102 0 0 0-3.012.005 2.144 2.144 0 0 0-.538.935 2.108 2.108 0 0 0-2.803.196 2.145 2.145 0 0 0-.538.936 2.108 2.108 0 0 0-2.802.196c-.261.266-.439.58-.533.914L8.008 4.583a2.102 2.102 0 0 0-3.012.005 2.192 2.192 0 0 0 0 3.06l7.579 7.72-4.494.718c-1.216.175-2.13 1.254-2.13 2.502 0 .935.752 1.7 1.67 1.7h10.502a6.035 6.035 0 0 0 4.333-1.828l1.754-1.785A6.25 6.25 0 0 0 26 12.271a6.339 6.339 0 0 0-1.597-4.187Zm-.992 7.794-1.754 1.786a4.935 4.935 0 0 1-3.544 1.492H7.621a.564.564 0 0 1-.558-.568c0-.69.506-1.28 1.185-1.381l5.585-.893a.56.56 0 0 0 .444-.383.578.578 0 0 0-.136-.573L5.784 6.852a1.047 1.047 0 0 1 .005-1.467.995.995 0 0 1 1.43 0l5.57 5.67c.22.222.569.222.788 0a.568.568 0 0 0 .162-.405.567.567 0 0 0-.162-.403L11.301 7.93a1.047 1.047 0 0 1 .005-1.466 1.002 1.002 0 0 1 1.436 0l2.276 2.316c.219.223.569.223.788 0a.567.567 0 0 0 .162-.404.567.567 0 0 0-.162-.403l-1.164-1.185a1.047 1.047 0 0 1 .005-1.467 1.002 1.002 0 0 1 1.436 0l1.169 1.19a.55.55 0 0 0 .777-.01.572.572 0 0 0 0-.802l-.046-.048a1.035 1.035 0 0 1 .005-1.461 1 1 0 0 1 1.414-.022l4.17 4.665a5.13 5.13 0 0 1 1.3 3.427 5.071 5.071 0 0 1-1.461 3.618Z" fill="#1C1C1C"/></svg>